{"title":"Marilia Rocha - Aboio (2005)","uid":5856214,"size":1037430192,"categoryP":"video","categoryS":"movies","magnet":"?xt=urn:btih:dee7b06097d84dd3ed9de0706e2db63cebb4f89e&amp;dn=Marilia+Rocha+-+Aboio+%282005%29&amp;tr=udp%3A%2F%2Ftracker.openbittorrent.com%3A80&amp;tr=udp%3A%2F%2Fopen.demonii.com%3A1337&amp;tr=udp%3A%2F%2Ftracker.coppersurfer.tk%3A6969&amp;tr=udp%3A%2F%2Fexodus.desync.com%3A6969","seeders":1,"leechers":0,"uploader":"mfccorrea","files":3,"time":1285626264,"description":"Brazilian outback, cowboys preserve their age-old customs, communicating with their cattle in a form of plaintive singing known as Aboio. The chant resounds an improvised, ancient form that is an entrance to the life and the imaginary of the ancient Brazilian cattle drivers.\n\n   General\n      Complete name : Aboio.avi\n      Format : AVI\n      Format/Info : Audio Video Interleave\n      File size : 985 MiB\n      Duration : 1h 11mn\n      Overall bit rate : 1 934 Kbps\n      Writing application : FairUse Wizard - http://fairusewizard.com\n      Writing library : The best and REALLY easy backup tool\n   Video #0\n      ID : 0\n      Format : MPEG-4 Visual\n      Format profile : AdvancedSimple@L5\n      Format settings, BVOP : Yes\n      Format settings, QPel : No\n      Format settings, GMC : No warppoints\n      Format settings, Matrix : Default (MPEG)\n      Muxing mode : Packed bitstream\n      Codec ID : XVID\n      Codec ID/Hint : XviD\n      Duration : 1h 11mn\n      Bit rate : 1 733 Kbps\n      Width : 624 pixels\n      Height : 400 pixels\n      Display aspect ratio : 1.560\n      Frame rate : 23.976 fps\n      Resolution : 24 bits\n      Colorimetry : 4:2:0\n      Scan type : Progressive\n      Bits/(Pixel*Frame) : 0.290\n      Stream size : 883 MiB (90%)\n      Writing library : XviD 1.2.0.dev47 (UTC 2006-11-01)\n   Audio #1\n      ID : 1\n      Format : AC-3\n      Format/Info : Audio Coding 3\n      Codec ID : 2000\n      Duration : 1h 11mn\n      Bit rate mode : Constant\n      Bit rate : 192 Kbps\n      Channel(s) : 2 channels\n      Channel positions : L R\n      Sampling rate : 48.0 KHz\n      Stream size : 97.8 MiB (10%)\n      Alignment : Split accross interleaves\n      Interleave, duration : 42 ms (1.00 video frame)\n      Interleave, preload duration : 500 ms\n &lt;a href=&quot;\nhttp://www.mariliarocha.com/trabalhos/aboio&quot; rel=&quot;nofollow&quot; target=&quot;_NEW&quot;&gt;\nhttp://www.mariliarocha.com/trabalhos/aboio&lt;/a&gt;\n\nPortuguese audio; English, French and Portuguese subpack (idx/sub)\n\nMy rip of the Brazilian DVD\n\nMarilia Rocha - Aboio (2005)","torrent":{"xt":"urn:btih:dee7b06097d84dd3ed9de0706e2db63cebb4f89e","amp;dn":"Marilia+Rocha+-+Aboio+%282005%29","amp;tr":["udp%3A%2F%2Ftracker.openbittorrent.com%3A80","udp%3A%2F%2Fopen.demonii.com%3A1337","udp%3A%2F%2Ftracker.coppersurfer.tk%3A6969","udp%3A%2F%2Fexodus.desync.com%3A6969"],"infoHash":"dee7b06097d84dd3ed9de0706e2db63cebb4f89e","infoHashBuffer":{"type":"Buffer","data":[222,231,176,96,151,216,77,211,237,157,224,112,110,45,182,60,235,180,248,158]},"announce":[],"urlList":[]}}